<?xml version="1.0" encoding="utf-8"?>
<!-- Generator: Adobe Illustrator 23.0.4, SVG Export Plug-In . SVG Version: 6.00 Build 0)  -->
<svg version="1.1" id="Capa_1" xmlns="http://www.w3.org/2000/svg" xmlns:xlink="http://www.w3.org/1999/xlink" x="0px" y="0px"
	 viewBox="0 0 98.08 84.71" style="enable-background:new 0 0 98.08 84.71;" xml:space="preserve">
<style type="text/css">
	.st0{opacity:0.6;}
	.st1{fill:#EBEAE7;}
	.st2{fill:#FCD61F;}
</style>
<g class="st0">
	<g>
		<path class="st1" d="M25.2,65.47c0.04-0.05,0.1-0.11,0.17-0.18c0.08-0.07,0.24-0.17,0.5-0.3s0.52-0.19,0.79-0.19
			c0.47,0,0.86,0.14,1.15,0.42c0.29,0.28,0.44,0.67,0.44,1.17c0,0.18-0.02,0.37-0.06,0.57l-0.6,2.87h-1.35l0.57-2.71
			c0.02-0.1,0.03-0.19,0.03-0.28c0-0.22-0.06-0.4-0.19-0.53c-0.13-0.13-0.3-0.2-0.53-0.2c-0.31,0-0.58,0.11-0.82,0.33
			c-0.24,0.22-0.4,0.51-0.48,0.88l-0.54,2.51h-1.35l1.05-4.93h1.35L25.2,65.47z"/>
		<path class="st1" d="M30.3,69.83h-1.35l1.05-4.93h1.35L30.3,69.83z M31.5,64c-0.16,0.17-0.37,0.26-0.61,0.26
			c-0.24,0-0.42-0.06-0.55-0.17c-0.13-0.11-0.19-0.27-0.19-0.47c0-0.25,0.08-0.45,0.24-0.62c0.16-0.16,0.36-0.25,0.59-0.25
			c0.24,0,0.43,0.06,0.56,0.18c0.13,0.12,0.2,0.28,0.2,0.47C31.75,63.63,31.66,63.83,31.5,64z"/>
		<path class="st1" d="M33.61,63.45h1.21l-0.32,1.56h1.01l-0.26,1.21h-1.01l-0.41,1.96c-0.04,0.16-0.02,0.29,0.05,0.4
			c0.07,0.1,0.19,0.16,0.36,0.16c0.1,0,0.2-0.01,0.3-0.03c0.1-0.02,0.17-0.04,0.22-0.06l0.08-0.02l-0.24,1.16
			c-0.28,0.1-0.59,0.15-0.93,0.15c-1.05,0-1.45-0.57-1.2-1.71l0.42-2.01h-0.86l0.26-1.21h0.45c0.15,0,0.3-0.06,0.43-0.18
			c0.13-0.12,0.22-0.28,0.26-0.47L33.61,63.45z"/>
		<path class="st1" d="M39.45,66.22c-0.09-0.03-0.24-0.05-0.45-0.05c-0.36,0-0.66,0.12-0.92,0.36c-0.26,0.24-0.43,0.57-0.52,1
			l-0.49,2.31h-1.35l1.05-4.93h1.35l-0.12,0.55c0.05-0.05,0.11-0.1,0.2-0.17c0.09-0.07,0.26-0.16,0.53-0.27
			c0.27-0.11,0.54-0.17,0.8-0.17h0.2L39.45,66.22z"/>
		<path class="st1" d="M44.04,69.07c-0.6,0.57-1.28,0.86-2.05,0.86c-0.67,0-1.24-0.23-1.7-0.68c-0.46-0.45-0.69-1-0.69-1.63
			c0-0.74,0.31-1.39,0.93-1.96c0.62-0.57,1.31-0.85,2.07-0.85c0.66,0,1.22,0.23,1.67,0.69c0.45,0.46,0.67,1,0.67,1.62
			C44.94,67.85,44.64,68.5,44.04,69.07z M41.46,66.53c-0.29,0.31-0.44,0.66-0.44,1.05c0,0.32,0.1,0.58,0.3,0.79
			c0.2,0.21,0.45,0.31,0.76,0.31c0.36,0,0.69-0.15,0.99-0.45s0.44-0.65,0.44-1.06c0-0.32-0.1-0.58-0.3-0.79
			c-0.2-0.21-0.45-0.31-0.76-0.31C42.08,66.06,41.75,66.22,41.46,66.53z"/>
		<path class="st1" d="M48.45,65.46h-1.2l-0.93,4.37h-0.45l0.93-4.37h-0.8l0.1-0.45h0.8L47.11,64c0.09-0.42,0.26-0.74,0.52-0.97
			c0.26-0.22,0.58-0.34,0.96-0.34c0.11,0,0.21,0.01,0.32,0.04c0.1,0.03,0.18,0.05,0.24,0.08l0.07,0.03l-0.09,0.45
			c-0.18-0.1-0.39-0.15-0.62-0.15s-0.44,0.08-0.6,0.23c-0.17,0.15-0.28,0.36-0.33,0.63l-0.21,1.01h1.21L48.45,65.46z"/>
		<path class="st1" d="M49.76,65.01h0.45l-1.03,4.82h-0.45L49.76,65.01z M50.07,63.07c0.07-0.08,0.16-0.12,0.26-0.12
			c0.11,0,0.19,0.03,0.26,0.09c0.06,0.06,0.09,0.13,0.09,0.23c0,0.11-0.04,0.2-0.12,0.27c-0.08,0.08-0.17,0.11-0.28,0.11
			c-0.1,0-0.18-0.03-0.24-0.08c-0.06-0.06-0.08-0.13-0.08-0.22C49.96,63.25,49.99,63.16,50.07,63.07z"/>
		<path class="st1" d="M51.44,69.83h-0.45l1.49-7.04h0.45L51.44,69.83z"/>
		<path class="st1" d="M60.38,66.97c0.03-0.18,0.05-0.33,0.05-0.45c0-0.36-0.11-0.64-0.32-0.84c-0.21-0.21-0.49-0.31-0.81-0.31
			c-0.41,0-0.78,0.16-1.1,0.47c-0.33,0.31-0.55,0.74-0.66,1.29l-0.57,2.71h-0.45l0.6-2.87c0.03-0.18,0.05-0.33,0.05-0.45
			c0-0.36-0.11-0.64-0.32-0.84c-0.21-0.21-0.49-0.31-0.82-0.31c-0.41,0-0.77,0.16-1.1,0.47c-0.32,0.31-0.54,0.74-0.66,1.29
			l-0.57,2.71h-0.45l1.03-4.82h0.45l-0.15,0.7c0.01-0.02,0.03-0.05,0.06-0.08c0.02-0.04,0.08-0.1,0.17-0.2s0.18-0.18,0.29-0.25
			c0.11-0.07,0.25-0.13,0.43-0.19c0.18-0.06,0.36-0.09,0.56-0.09c0.23,0,0.44,0.04,0.62,0.12c0.18,0.08,0.33,0.17,0.43,0.28
			c0.1,0.11,0.19,0.21,0.26,0.32c0.07,0.11,0.12,0.2,0.14,0.27l0.04,0.12c0.01-0.03,0.03-0.06,0.06-0.12
			c0.03-0.05,0.09-0.14,0.19-0.27c0.1-0.13,0.21-0.24,0.34-0.34c0.12-0.1,0.29-0.19,0.5-0.27c0.21-0.08,0.44-0.12,0.68-0.12
			c0.43,0,0.8,0.13,1.1,0.4s0.45,0.63,0.45,1.09c0,0.18-0.02,0.37-0.06,0.57l-0.6,2.87h-0.45L60.38,66.97z"/>
		<path class="st1" d="M65.19,65.94c-0.03-0.04-0.08-0.09-0.14-0.16c-0.06-0.07-0.19-0.15-0.39-0.26c-0.2-0.11-0.42-0.16-0.64-0.16
			c-0.37,0-0.66,0.09-0.88,0.26c-0.21,0.17-0.32,0.39-0.32,0.64c0,0.2,0.12,0.38,0.37,0.54c0.25,0.16,0.51,0.28,0.8,0.38
			c0.29,0.09,0.55,0.24,0.8,0.44s0.37,0.45,0.37,0.73c0,0.46-0.17,0.84-0.51,1.13c-0.34,0.29-0.8,0.44-1.37,0.44
			c-0.21,0-0.41-0.03-0.6-0.08c-0.19-0.05-0.35-0.12-0.48-0.2c-0.13-0.08-0.24-0.16-0.34-0.24s-0.17-0.15-0.21-0.2l-0.07-0.08
			l0.4-0.33c0.04,0.05,0.1,0.12,0.17,0.19c0.07,0.07,0.23,0.17,0.47,0.3s0.49,0.19,0.74,0.19c0.42,0,0.75-0.1,0.99-0.3
			c0.24-0.2,0.36-0.45,0.36-0.77c0-0.17-0.08-0.33-0.24-0.46c-0.16-0.13-0.35-0.24-0.58-0.33c-0.23-0.09-0.46-0.19-0.68-0.29
			c-0.23-0.1-0.42-0.24-0.58-0.41c-0.16-0.17-0.24-0.37-0.24-0.6c0-0.38,0.16-0.71,0.49-1c0.33-0.29,0.74-0.43,1.24-0.43
			c0.28,0,0.55,0.06,0.8,0.18c0.25,0.12,0.43,0.23,0.54,0.35l0.16,0.18L65.19,65.94z"/>
	</g>
	<g>
		<line class="st1" x1="56.01" y1="32.31" x2="56.06" y2="32.04"/>
		<path class="st1" d="M67.41,51.46l-1.04,4.94H53.63L43.58,38.84L39.9,56.4H24.45l8.79-41.62h0c7.86,0,15.12,4.21,19.03,11.03
			l3.72,6.5L67.41,51.46z"/>
		<path class="st2" d="M75.16,14.77c-5.16,0-10.31,0-15.47,0l-0.01,0.06c2.04,3.51,4.08,7.02,6.12,10.53
			c1.83,3.14,6.56,2.39,7.32-1.16C73.81,21.06,74.48,17.92,75.16,14.77z"/>
	</g>
</g>
</svg>
